<?xml version="1.0" encoding="utf-8"?>
<svg viewBox="0 0 500 500" xmlns="http://www.w3.org/2000/svg" xmlns:xlink="http://www.w3.org/1999/xlink">
  <defs>
    <filter height="1.088351" y="-0.044175496" width="1.0892536" x="-0.044626798" id="filter4350" style="color-interpolation-filters:sRGB">
      <feGaussianBlur id="feGaussianBlur4352" stdDeviation="8.7848425"/>
    </filter>
    <linearGradient y2="300.73987" x2="236.61363" y1="-161.8512" x1="-122.20192" spreadMethod="pad" gradientTransform="matrix(0.873858, 0, 0, 0.828181, 867.051392, 287.08847)" gradientUnits="userSpaceOnUse" id="linearGradient4245" xlink:href="#linearGradient4284"/>
    <linearGradient id="linearGradient4284">
      <stop offset="0" style="stop-color:#8381c5;stop-opacity:1" id="stop4286"/>
      <stop id="stop4290" style="stop-color:#7e55b3;stop-opacity:0.99607843" offset="0.5664"/>
      <stop offset="1" style="stop-color:#a52ecb;stop-opacity:0.99215686" id="stop4288"/>
    </linearGradient>
    <linearGradient y2="66.018341" x2="173.94518" y1="396.6066" x1="447.80933" gradientTransform="matrix(0.98685, 0, 0, 0.98685, 624.078186, 39.332111)" gradientUnits="userSpaceOnUse" id="linearGradient4247" xlink:href="#linearGradient4292"/>
    <linearGradient id="linearGradient4292">
      <stop id="stop4294" offset="0" style="stop-color:#411f5d;stop-opacity:1"/>
      <stop id="stop4296" offset="1" style="stop-color:#5b2a85;stop-opacity:1"/>
    </linearGradient>
  </defs>
  <g transform="matrix(0.999936, 0, 0, 0.999936, -626.110901, -43.683178)">
    <title>emacs</title>
    <path style="opacity:0.40500004;fill:#211f46;fill-opacity:0.99607843;stroke:#0a0b1b;stroke-width:8.53333378;stroke-miterlimit:4;stroke-dasharray:none;stroke-opacity:1;filter:url(#filter4350)" id="path4233" d="M 1109.282 293.702 C 1109.282 423.763 1004.913 529.199 876.167 529.199 C 747.421 529.199 643.052 423.763 643.052 293.702 C 643.052 163.64 747.421 58.205 876.167 58.205 C 1004.913 58.205 1109.282 163.64 1109.282 293.702 Z"/>
    <path d="M 1109.282 293.702 C 1109.282 423.763 1004.913 529.198 876.167 529.198 C 747.421 529.198 643.052 423.763 643.052 293.702 C 643.052 163.64 747.421 58.205 876.167 58.205 C 1004.913 58.205 1109.282 163.64 1109.282 293.702 Z" id="path4235" style="opacity:1;fill:url(#linearGradient4245);fill-opacity:1;stroke:url(#linearGradient4247);stroke-width:13.33816814;stroke-miterlimit:4;stroke-dasharray:none;stroke-opacity:1"/>
  </g>
  <title id="title2997">emacs-china</title>
  <g id="layer2" style="display:inline" transform="matrix(2.346431, 0, 0, 2.346431, -1566.682373, -506.543304)">
    <path style="fill:#ffff00;fill-opacity:1;stroke:#000000;stroke-width:0;stroke-miterlimit:4;stroke-opacity:1;stroke-dasharray:none" d="" id="path5236"/>
    <path style="fill:#0909c6;fill-opacity:1;stroke:none" d="" id="path5794"/>
    <path style="fill:#0909c6;fill-opacity:1;stroke:none" d="" id="path5804"/>
    <g id="g6617" transform="matrix(1, 0, 0, 1, 282.573029, -263.062103)" style="fill:#ffffff">
      <g transform="translate(-51.594203,-12.463768)" id="g6439" style="fill:#ffffff">
        <path style="fill:#ffffff;fill-opacity:1" d="m 546.90775,670.37769 c -11.68253,-0.47079 -28.58851,-2.50656 -44.05797,-5.30533 l -3.62319,-0.65551 8.84058,-0.19448 c 8.17653,-0.17987 16.4815,-0.63459 25.07246,-1.3728 6.02579,-0.51779 21.64009,-2.02226 24.05037,-2.3173 1.27118,-0.1556 2.42156,-0.28292 2.55639,-0.28292 0.13484,0 0.20348,-0.2887 0.15253,-0.64156 -0.0902,-0.6251 -0.53524,-0.69796 -17.339,-2.8389 l -17.24637,-2.19733 -4.63768,-1.84043 C 493.9498,642.12512 476.83254,630.1191 473.5393,619.66964 c -2.9278,-9.28988 4.98554,-18.70297 18.87826,-22.45611 11.1775,-3.01962 27.69002,-3.13172 44.48306,-0.302 2.22796,0.37542 4.15187,0.62014 4.27536,0.54382 0.70641,-0.43658 -0.0592,-1.3102 -2.88567,-3.29295 -17.08408,-11.98423 -29.42805,-22.94325 -34.23338,-30.39252 -5.28675,-8.19557 -2.18147,-13.00656 9.50479,-14.72569 3.64841,-0.53672 14.16794,-0.59382 19.86777,-0.10785 8.67031,0.73923 19.30565,2.20699 27.53623,3.80023 2.39131,0.4629 4.5545,0.84264 4.8071,0.84388 0.39501,0.002 0.42574,-0.24295 0.21962,-1.75013 -0.6383,-4.66736 -3.91777,-8.04508 -9.51947,-9.80464 -3.03039,-0.95189 -5.33308,-1.26469 -10.70123,-1.45366 -3.03379,-0.1068 -5.0883,-0.29637 -5.14739,-0.47497 -0.0576,-0.17402 1.61492,-0.57999 4.03457,-0.97933 2.27309,-0.37516 4.3107,-0.77659 4.52802,-0.89207 0.26749,-0.14215 -0.38792,-0.69162 -2.02899,-1.70102 -2.1581,-1.32743 -2.70125,-1.85397 -4.94966,-4.79828 -1.7033,-2.23049 -2.40059,-3.35518 -2.14176,-3.45451 0.21108,-0.081 2.77356,1.53733 5.69439,3.59628 3.64185,2.56721 5.55704,3.74355 6.09485,3.74355 1.90838,0 8.38225,2.31013 13.07486,4.66562 3.41514,1.71425 7.0712,3.16047 7.9897,3.16047 1.11671,0 1.52365,-0.48171 1.52365,-1.80358 0,-1.44459 -1.61619,-3.24839 -4.09368,-4.56888 -1.63254,-0.87013 -2.15787,-0.98258 -6.5014,-1.39158 l -4.72536,-0.44495 -1.25282,-1.10054 -1.25282,-1.10054 3.26087,-0.0124 c 3.06351,-0.0116 3.26086,-0.0475 3.26086,-0.59207 0,-0.45337 -0.19323,-0.57971 -0.88667,-0.57971 -0.48767,0 -0.81797,-0.11116 -0.734,-0.24702 0.12723,-0.20587 -4.86625,-4.95098 -7.979,-7.58213 l -0.8609,-0.72769 0.66507,-1.51185 c 0.36579,-0.83152 0.73874,-1.51493 0.82878,-1.51868 0.09,-0.004 0.37101,0.42789 0.62438,0.95922 0.76255,1.59909 3.25732,4.38029 4.91786,5.48249 0.85835,0.56974 2.92566,1.51056 4.59401,2.09072 3.39704,1.18128 5.09798,2.06981 8.68555,4.53711 4.14855,2.85312 7.2829,5.64191 8.17551,7.27419 2.29997,4.20581 7.65306,9.41062 14.18374,13.79084 2.60212,1.74528 3.43785,3.08825 3.43785,5.52447 0,3.36345 2.20033,7.48059 5.82555,10.90044 2.21549,2.08998 5.91593,4.93267 7.79799,5.99045 0.63749,0.35829 1.15834,0.85567 1.15745,1.1053 -0.005,1.38027 -0.69851,2.61895 -2.42414,4.32925 l -1.85727,1.84076 -2.32385,-0.68415 -2.32386,-0.68416 -2.12883,-2.69354 -2.12884,-2.69354 -3.47826,-1.61703 -3.47826,-1.61704 -5.07246,-0.28487 -5.07247,-0.28486 -5.94318,-3.29609 c -3.26875,-1.81285 -6.33397,-3.36536 -6.8116,-3.45 -1.54135,-0.27317 -11.10622,-1.02506 -18.54957,-1.45818 -17.91915,-1.0427 -24.49275,-0.058 -24.49275,3.66886 0,0.33851 0.842,1.47399 1.95652,2.63847 2.3195,2.42345 14.89035,13.78961 29.73534,26.88573 l 10.67736,9.41948 -7.63388,0.19424 c -23.949,0.60936 -40.94473,3.43671 -51.51177,8.56932 -2.51213,1.22019 -3.75482,2.03462 -5.21431,3.41735 l -1.91614,1.81537 0.4031,1.11476 c 0.595,1.64542 2.56591,4.82084 4.03351,6.49853 4.60222,5.26102 13.84769,10.11514 24.83252,13.03773 4.56133,1.21358 8.16192,1.91698 14.92337,2.91537 14.26151,2.10584 23.91128,4.99997 30.06454,9.01687 2.28878,1.49413 4.77948,3.87696 5.4965,5.25846 0.3962,0.76336 0.37232,0.93612 -0.32695,2.36537 -3.10883,6.35424 -15.09064,9.09045 -36.09942,8.24381 l 0,0 z" id="path4166"/>
      </g>
    </g>
  </g>
  <rect style="fill:none;display:none" id="rect4772" y="0.20100001" x="0.171" height="512" width="512" transform="matrix(1, 0, 0, 1, -25.892578, 68.030005)"/>
  <g style="display:none" id="g4788" transform="matrix(1, 0, 0, 1, -25.892578, 68.030005)">
    <g style="display:inline" id="g4790"/>
  </g>
  <g style="display:none" id="g4806" transform="matrix(1, 0, 0, 1, -25.892578, 68.030005)">
    <g style="display:inline" id="g4808">
      <path style="fill:#050505;display:none" id="path4810" d="M 349.098,256.651 C 348.833,256.397 386.735,284.256 388.519,281.663 C 394.881,272.411 470.565,188.526 473.303,165.427 C 473.545,163.424 472.787,161.331 472.787,161.331 C 472.787,161.331 471.597,161.187 466.462,157.017 C 463.77,154.825 460.979,152.436 460.979,152.436 C 444.925,153.434 403.094,193.995 349.917,256.004"/>
    </g>
  </g>
</svg>