<?xml version="1.0" encoding="utf-8"?>
<svg viewBox="0 0 500 500" xmlns="http://www.w3.org/2000/svg" xmlns:bx="https://boxy-svg.com">
  <g transform="matrix(1, 0, 0, 1, -502.80069, 77.525063)">
    <title>dragon</title>
    <path style="fill:#ffffff;fill-opacity:1" d="M 676.376 274.726 C 648.963 273.621 609.294 268.843 572.997 262.276 L 564.496 260.739 L 585.238 260.281 C 604.425 259.859 623.912 258.794 644.07 257.062 C 658.208 255.847 694.847 252.315 700.502 251.623 C 703.484 251.259 706.185 250.959 706.499 250.959 C 706.816 250.959 706.978 250.283 706.858 249.455 C 706.647 247.988 705.709 246.994 666.279 241.97 L 649.406 240.266 L 639.018 238.464 L 628.077 236.641 L 621.33 235.102 L 614.824 233.319 C 552.114 208.432 511.949 180.261 504.221 155.743 C 497.353 133.945 515.92 111.858 548.519 103.052 C 574.744 95.966 613.492 95.703 652.894 102.343 C 658.123 103.223 662.635 103.798 662.926 103.617 C 664.583 102.594 662.788 100.543 656.154 95.89 C 616.068 67.771 587.104 42.056 575.829 24.578 C 563.423 5.346 570.709 -5.942 598.132 -9.976 C 606.692 -11.236 631.376 -11.37 644.748 -10.229 C 665.094 -8.493 690.049 -5.051 709.362 -1.31 C 714.971 -0.226 720.048 0.665 720.641 0.668 C 721.568 0.672 721.641 0.1 721.155 -3.439 C 719.658 -14.389 711.964 -22.316 698.819 -26.443 C 691.71 -28.677 686.306 -29.411 673.71 -29.855 C 666.591 -30.106 661.769 -30.549 661.631 -30.969 C 661.497 -31.378 665.42 -32.33 671.099 -33.266 C 676.432 -34.146 681.214 -35.09 681.723 -35.359 C 682.35 -35.693 680.813 -36.983 676.963 -39.351 C 671.899 -42.467 670.625 -43.701 665.348 -50.611 C 661.352 -55.844 659.716 -58.485 660.324 -58.717 C 660.819 -58.906 666.831 -55.109 673.685 -50.278 C 682.23 -44.255 686.724 -41.493 687.986 -41.493 C 692.463 -41.493 707.654 -36.073 718.666 -30.547 C 726.679 -26.523 735.257 -23.13 737.411 -23.13 C 740.032 -23.13 740.987 -24.261 740.987 -27.364 C 740.987 -30.751 737.195 -34.984 731.38 -38.084 C 727.552 -40.125 726.317 -40.388 716.127 -41.348 L 705.04 -42.392 L 702.1 -44.975 L 699.159 -47.556 L 706.812 -47.587 C 713.999 -47.613 714.462 -47.697 714.462 -48.976 C 714.462 -50.039 714.008 -50.334 712.382 -50.334 C 711.237 -50.334 710.463 -50.597 710.66 -50.916 C 710.958 -51.397 699.241 -62.531 691.937 -68.707 L 689.917 -70.413 L 691.478 -73.961 C 692.336 -75.913 693.212 -77.515 693.423 -77.525 C 693.634 -77.534 694.293 -76.521 694.887 -75.275 C 696.677 -71.523 702.532 -64.995 706.427 -62.409 C 708.44 -61.072 713.292 -58.866 717.206 -57.503 C 725.177 -54.732 729.168 -52.648 737.587 -46.857 C 747.32 -40.163 754.676 -33.618 756.769 -29.789 C 762.165 -19.92 774.727 -7.709 790.051 2.571 C 796.157 6.665 798.118 9.816 798.118 15.532 C 798.118 23.426 803.28 33.086 811.786 41.111 C 816.986 46.015 825.668 52.683 830.084 55.166 C 831.581 56.006 832.803 57.174 832.801 57.759 C 832.789 60.999 831.161 63.904 827.113 67.919 L 822.753 72.236 L 817.303 70.631 L 811.849 69.026 L 806.854 62.707 L 801.858 56.386 L 793.697 52.592 L 785.534 48.798 L 773.633 48.129 L 761.731 47.46 L 747.785 39.726 C 740.117 35.472 732.923 31.831 731.803 31.631 C 728.185 30.991 705.744 29.226 688.277 28.21 C 646.231 25.763 630.806 28.074 630.806 36.819 C 630.806 37.612 632.782 40.278 635.398 43.009 C 640.839 48.697 670.336 75.366 705.169 106.095 L 730.223 128.196 L 712.312 128.653 C 656.117 130.083 616.237 136.716 591.442 148.76 C 585.548 151.623 582.631 153.535 579.208 156.778 L 574.711 161.039 L 575.658 163.655 C 577.054 167.515 581.679 174.965 585.121 178.903 C 595.919 191.246 617.614 202.637 643.39 209.495 C 654.092 212.342 662.541 213.993 678.406 216.335 C 711.87 221.277 734.511 228.067 748.951 237.493 C 754.32 240.998 760.165 246.59 761.846 249.83 C 762.775 251.623 762.719 252.029 761.079 255.382 C 753.785 270.291 725.672 276.711 676.376 274.726 Z" id="path4166">
      <title>dragon</title>
    </path>
    <path style="fill: rgb(255, 255, 255);" transform="matrix(-0.372789, 0, 0, 0.528845, 758.68042, -68.695168)" d="M 473.613 416.846 A 23.42 23.42 0 1 1 473.613 461 A 27.366 27.366 0 0 0 473.613 416.846 Z" bx:shape="crescent 481.431 438.923 23.42 219 0.572 1@84f2780d">
      <title>fixup corner</title>
    </path>
  </g>
  <title id="title2997">emacs-china</title>
</svg>