<?xml version="1.0" encoding="utf-8"?>
<svg viewBox="0 0 500 500" xmlns="http://www.w3.org/2000/svg" xmlns:bx="https://boxy-svg.com">
  <path style="fill: rgb(255, 255, 255); fill-opacity: 1; stroke-linejoin: round; stroke-linecap: round;" d="M 258.575 417.908 C 231.162 416.803 143.823 409.67 146.695 405.963 C 149.191 402.741 193.644 406.633 226.072 403.917 C 240.213 402.733 275.671 399.306 275.298 396.066 C 274.835 392.046 229.17 388.167 200.443 379.552 C 150.366 364.535 95.569 336.776 86.42 300.967 C 80.762 278.824 98.119 257.082 130.718 248.276 C 156.943 241.19 195.691 240.927 235.093 247.567 C 240.322 248.447 244.834 249.022 245.125 248.841 C 246.782 247.818 244.987 245.767 238.353 241.114 C 198.267 212.995 169.303 187.28 158.028 169.802 C 145.622 150.57 152.908 139.282 180.331 135.248 C 188.891 133.988 213.575 133.854 226.947 134.995 C 247.293 136.731 272.248 140.173 291.561 143.914 C 297.17 144.998 302.247 145.889 302.84 145.892 C 303.767 145.896 303.84 145.324 303.354 141.785 C 301.857 130.835 294.163 122.908 281.018 118.781 C 273.909 116.547 268.505 115.813 255.909 115.369 C 248.79 115.118 243.968 114.675 243.83 114.255 C 243.696 113.846 247.619 112.894 253.298 111.958 C 258.631 111.078 263.413 110.134 263.922 109.865 C 264.549 109.531 263.012 108.241 259.162 105.873 C 254.098 102.757 252.824 101.523 247.547 94.613 C 243.551 89.38 241.915 86.739 242.523 86.507 C 243.018 86.318 249.03 90.115 255.884 94.946 C 264.429 100.969 268.923 103.731 270.185 103.731 C 274.662 103.731 289.853 109.151 300.865 114.677 C 308.878 118.701 317.456 122.094 319.61 122.094 C 322.231 122.094 323.186 120.963 323.186 117.86 C 323.186 114.473 319.394 110.24 313.579 107.14 C 309.751 105.099 308.516 104.836 298.326 103.876 L 287.239 102.832 L 284.299 100.249 L 281.358 97.668 L 289.011 97.637 C 296.198 97.611 296.661 97.527 296.661 96.248 C 296.661 95.185 296.207 94.89 294.581 94.89 C 293.436 94.89 292.662 94.627 292.859 94.308 C 293.157 93.827 281.44 82.693 274.136 76.517 L 272.116 74.811 L 273.677 71.263 C 274.535 69.311 275.411 67.709 275.622 67.699 C 275.833 67.69 276.492 68.703 277.086 69.949 C 278.876 73.701 284.731 80.229 288.626 82.815 C 290.639 84.152 295.491 86.358 299.405 87.721 C 307.376 90.492 311.367 92.576 319.786 98.367 C 329.519 105.061 336.875 111.606 338.968 115.435 C 344.364 125.304 356.926 137.515 372.25 147.795 C 378.356 151.889 380.317 155.04 380.317 160.756 C 380.317 168.65 385.479 178.31 393.985 186.335 C 399.185 191.239 401.045 192.534 412.283 200.39 C 418.964 205.06 426.626 206.62 421.153 215.344 C 415.907 223.705 412.383 221.01 400.178 208.151 C 396.37 204.139 378.951 194.741 378.951 194.741 L 367.733 194.022 C 367.733 194.022 354.832 193.851 348.587 192.405 C 342.661 191.033 331.467 185.747 331.467 185.747 C 323.799 181.493 304.31 174.612 279.929 169.97 C 239.78 162.326 200.705 171.983 223.125 197.029 C 242.103 218.23 242.342 218.092 274.151 245.208 L 312.422 273.42 L 294.511 273.877 C 238.316 275.307 200.167 284.592 173.641 293.984 C 160.948 298.478 143.03 310.101 172.303 329.597 C 185.953 338.688 221.157 351.987 260.993 361.716 C 272.726 364.582 349.834 379.467 345.036 397.904 C 341.255 412.433 307.871 419.893 258.575 417.908 Z" id="path4166" bx:origin="0.49055 0.539195">
    <title>dragon</title>
  </path>
  <title id="title2997">emacs-china</title>
  <title id="bx-title-1">emacs-china</title>
</svg>