<?xml version="1.0" encoding="utf-8"?>
<svg viewBox="0 0 500 500" xmlns="http://www.w3.org/2000/svg" xmlns:xlink="http://www.w3.org/1999/xlink" xmlns:bx="https://boxy-svg.com">
  <defs>
    <linearGradient id="linearGradient4292">
      <stop id="stop4294" offset="0" style="stop-color:#411f5d;stop-opacity:1"/>
      <stop id="stop4296" offset="1" style="stop-color:#5b2a85;stop-opacity:1"/>
    </linearGradient>
    <linearGradient id="linearGradient4284">
      <stop offset="0" style="stop-color:#8381c5;stop-opacity:1" id="stop4286"/>
      <stop id="stop4290" style="stop-color:#7e55b3;stop-opacity:0.99607843" offset="0.5664"/>
      <stop offset="1" style="stop-color:#a52ecb;stop-opacity:0.99215686" id="stop4288"/>
    </linearGradient>
    <filter height="1.088351" y="-0.044175496" width="1.0892536" x="-0.044626798" id="filter4350" style="color-interpolation-filters:sRGB">
      <feGaussianBlur id="feGaussianBlur4352" stdDeviation="8.7848425"/>
    </filter>
    <linearGradient y2="300.73987" x2="236.61363" y1="-161.8512" x1="-122.20192" spreadMethod="pad" gradientTransform="matrix(0.873802, 0, 0, 0.828128, 658.685505, 98.162928)" gradientUnits="userSpaceOnUse" id="linearGradient4284-1" xlink:href="#linearGradient4284"/>
    <linearGradient y2="66.018341" x2="173.94518" y1="396.6066" x1="447.80933" gradientTransform="matrix(0.986787, 0, 0, 0.986787, 415.727868, -149.577556)" gradientUnits="userSpaceOnUse" id="linearGradient4292-1" xlink:href="#linearGradient4292"/>
  </defs>
  <g transform="matrix(1, 0, 0, 1, -417.800507, 145.223999)" style="" bx:origin="-0.342139 0.169652">
    <title>emacs dragon</title>
    <path style="opacity:0.40500004;fill:#211f46;fill-opacity:0.99607843;stroke:#0a0b1b;stroke-width:8.53333378;stroke-miterlimit:4;stroke-dasharray:none;stroke-opacity:1;filter:url(#filter4350)" id="path-1" d="M 900.901 104.776 C 900.901 234.829 796.538 340.258 667.8 340.258 C 539.063 340.258 434.7 234.829 434.7 104.776 C 434.7 -25.278 539.063 -130.706 667.8 -130.706 C 796.538 -130.706 900.901 -25.278 900.901 104.776 Z">
      <title>shadow</title>
    </path>
    <path d="M 900.901 104.776 C 900.901 234.829 796.538 340.257 667.8 340.257 C 539.063 340.257 434.7 234.829 434.7 104.776 C 434.7 -25.278 539.063 -130.706 667.8 -130.706 C 796.538 -130.706 900.901 -25.278 900.901 104.776 Z" id="path-2" style="opacity: 1; fill-opacity: 1; stroke-width: 13.3382; stroke-miterlimit: 4; stroke-dasharray: none; stroke-opacity: 1; fill: url(#linearGradient4284-1); stroke: url(#linearGradient4292-1);">
      <title>background</title>
    </path>
    <path style="fill: rgb(255, 255, 255); fill-opacity: 1; stroke-linejoin: round; stroke-linecap: round;" d="M 676.376 272.684 C 648.963 271.579 561.624 264.446 564.496 260.739 C 566.992 257.517 611.445 261.409 643.873 258.693 C 658.014 257.509 693.472 254.082 693.099 250.842 C 692.636 246.822 646.971 242.943 618.244 234.328 C 568.167 219.311 513.37 191.552 504.221 155.743 C 498.563 133.6 515.92 111.858 548.519 103.052 C 574.744 95.966 613.492 95.703 652.894 102.343 C 658.123 103.223 662.635 103.798 662.926 103.617 C 664.583 102.594 662.788 100.543 656.154 95.89 C 616.068 67.771 587.104 42.056 575.829 24.578 C 563.423 5.346 570.709 -5.942 598.132 -9.976 C 606.692 -11.236 631.376 -11.37 644.748 -10.229 C 665.094 -8.493 690.049 -5.051 709.362 -1.31 C 714.971 -0.226 720.048 0.665 720.641 0.668 C 721.568 0.672 721.641 0.1 721.155 -3.439 C 719.658 -14.389 711.964 -22.316 698.819 -26.443 C 691.71 -28.677 686.306 -29.411 673.71 -29.855 C 666.591 -30.106 661.769 -30.549 661.631 -30.969 C 661.497 -31.378 665.42 -32.33 671.099 -33.266 C 676.432 -34.146 681.214 -35.09 681.723 -35.359 C 682.35 -35.693 680.813 -36.983 676.963 -39.351 C 671.899 -42.467 670.625 -43.701 665.348 -50.611 C 661.352 -55.844 659.716 -58.485 660.324 -58.717 C 660.819 -58.906 666.831 -55.109 673.685 -50.278 C 682.23 -44.255 686.724 -41.493 687.986 -41.493 C 692.463 -41.493 707.654 -36.073 718.666 -30.547 C 726.679 -26.523 735.257 -23.13 737.411 -23.13 C 740.032 -23.13 740.987 -24.261 740.987 -27.364 C 740.987 -30.751 737.195 -34.984 731.38 -38.084 C 727.552 -40.125 726.317 -40.388 716.127 -41.348 L 705.04 -42.392 L 702.1 -44.975 L 699.159 -47.556 L 706.812 -47.587 C 713.999 -47.613 714.462 -47.697 714.462 -48.976 C 714.462 -50.039 714.008 -50.334 712.382 -50.334 C 711.237 -50.334 710.463 -50.597 710.66 -50.916 C 710.958 -51.397 699.241 -62.531 691.937 -68.707 L 689.917 -70.413 L 691.478 -73.961 C 692.336 -75.913 693.212 -77.515 693.423 -77.525 C 693.634 -77.534 694.293 -76.521 694.887 -75.275 C 696.677 -71.523 702.532 -64.995 706.427 -62.409 C 708.44 -61.072 713.292 -58.866 717.206 -57.503 C 725.177 -54.732 729.168 -52.648 737.587 -46.857 C 747.32 -40.163 754.676 -33.618 756.769 -29.789 C 762.165 -19.92 774.727 -7.709 790.051 2.571 C 796.157 6.665 798.118 9.816 798.118 15.532 C 798.118 23.426 803.28 33.086 811.786 41.111 C 816.986 46.015 818.846 47.31 830.084 55.166 C 836.765 59.836 844.427 61.396 838.954 70.12 C 833.708 78.481 830.184 75.786 817.979 62.927 C 814.171 58.915 796.752 49.517 796.752 49.517 L 785.534 48.798 C 785.534 48.798 772.633 48.627 766.388 47.181 C 760.462 45.809 749.268 40.523 749.268 40.523 C 741.6 36.269 722.111 29.388 697.73 24.746 C 657.581 17.102 618.506 26.759 640.926 51.805 C 659.904 73.006 660.143 72.868 691.952 99.984 L 730.223 128.196 L 712.312 128.653 C 656.117 130.083 617.968 139.368 591.442 148.76 C 578.749 153.254 560.831 164.877 590.104 184.373 C 603.754 193.464 638.958 206.763 678.794 216.492 C 690.527 219.358 767.635 234.243 762.837 252.68 C 759.056 267.209 725.672 274.669 676.376 272.684 Z" id="path4166" bx:origin="0.49055 0.539195">
      <title>dragon</title>
    </path>
  </g>
  <title id="title2997">emacs-china</title>
  <title id="bx-title-1">emacs-china</title>
</svg>