<?xml version="1.0" encoding="utf-8"?>
<svg id="svg2478" viewBox="0.5 25.1 512 512" height="512" width="512" version="1.0" xmlns="http://www.w3.org/2000/svg" xmlns:xlink="http://www.w3.org/1999/xlink" xmlns:bx="https://boxy-svg.com">
  <defs id="defs2480">
    <linearGradient id="linearGradient3251">
      <stop offset="0" style="stop-color:#000000;stop-opacity:1" id="stop3253"/>
      <stop offset="1" style="stop-color:#000000;stop-opacity:0" id="stop3255"/>
    </linearGradient>
    <linearGradient id="linearGradient3591">
      <stop offset="0" style="stop-color:#ffffff;stop-opacity:1" id="stop3593"/>
      <stop offset="1" style="stop-color:#969696;stop-opacity:1" id="stop3595"/>
    </linearGradient>
    <linearGradient id="linearGradient3423">
      <stop offset="0" style="stop-color:#e7e7e8;stop-opacity:1" id="stop3425"/>
      <stop offset="1" style="stop-color:#ffffff;stop-opacity:1" id="stop3427"/>
    </linearGradient>
    <linearGradient id="linearGradient3399">
      <stop offset="0" style="stop-color:#000000;stop-opacity:0.23529412" id="stop3401"/>
      <stop offset="1" style="stop-color:#969696;stop-opacity:0" id="stop3403"/>
    </linearGradient>
    <linearGradient gradientTransform="translate(-0.2692978,0.2692938)" gradientUnits="userSpaceOnUse" id="linearGradient3405" y2="357.5979" x2="229.86604" y1="506" x1="80.5" xlink:href="#linearGradient3399"/>
    <linearGradient gradientUnits="userSpaceOnUse" id="linearGradient3429" y2="495.98917" x2="258.51788" y1="86.313828" x1="262.18225" xlink:href="#linearGradient3423"/>
    <filter id="filter3567">
      <feGaussianBlur stdDeviation="4.2737072" id="feGaussianBlur3569"/>
    </filter>
    <linearGradient gradientUnits="userSpaceOnUse" id="linearGradient3597" y2="95.825417" x2="389.52469" y1="115.66505" x1="368.36868" xlink:href="#linearGradient3591"/>
    <filter id="filter3715" x="-0.384" width="1.768" y="-0.384" height="1.768">
      <feGaussianBlur stdDeviation="14.421378" id="feGaussianBlur3717"/>
    </filter>
    <filter id="filter3731">
      <feGaussianBlur stdDeviation="4.397419" id="feGaussianBlur3733"/>
    </filter>
    <linearGradient gradientUnits="userSpaceOnUse" id="linearGradient3257" y2="83.418686" x2="394.19592" y1="139.48338" x1="348.03799" xlink:href="#linearGradient3251"/>
    <filter height="1.088351" y="-0.044175494" width="1.0892535" x="-0.044626798" id="filter4350" style="color-interpolation-filters:sRGB">
      <feGaussianBlur id="feGaussianBlur4352" stdDeviation="8.7848425"/>
    </filter>
    <linearGradient gradientTransform="matrix(0.38803836,0,0,0.36775507,375.02857,404.82819)" spreadMethod="pad" gradientUnits="userSpaceOnUse" y2="300.73987" x2="236.61363" y1="-161.8512" x1="-122.20192" id="linearGradient4274" xlink:href="#linearGradient4284"/>
    <linearGradient id="linearGradient4284">
      <stop offset="0" style="stop-color:#8381c5;stop-opacity:1" id="stop4286"/>
      <stop id="stop4290" style="stop-color:#7e55b3;stop-opacity:0.99607843" offset="0.5664"/>
      <stop offset="1" style="stop-color:#a52ecb;stop-opacity:0.99215686" id="stop4288"/>
    </linearGradient>
    <linearGradient gradientTransform="matrix(0.43821233,0,0,0.43821233,267.13587,294.81153)" gradientUnits="userSpaceOnUse" y2="66.018341" x2="173.94518" y1="396.6066" x1="447.80933" id="linearGradient4298" xlink:href="#linearGradient4292"/>
    <linearGradient id="linearGradient4292">
      <stop id="stop4294" offset="0" style="stop-color:#411f5d;stop-opacity:1"/>
      <stop id="stop4296" offset="1" style="stop-color:#5b2a85;stop-opacity:1"/>
    </linearGradient>
  </defs>
  <path style="fill:#0a0a0a;fill-opacity:0.39215686;fill-rule:evenodd;stroke:#000000;stroke-width:0.42872402;stroke-linecap:butt;stroke-linejoin:miter;stroke-miterlimit:4;stroke-dasharray:none;stroke-opacity:1;filter:url(#filter3731)" id="path3431" d="M 65.840457,40.220841 L 65.840457,531.21586 L 454.73556,531.21586 C 454.73556,531.21586 454.82343,271.39779 454.73556,195.85859 C 454.7129,176.38596 452.52523,165.22182 440.52509,152.46728 C 385.21346,93.678448 362.19141,71.631941 340.14323,51.220087 C 333.95591,45.491962 327.07219,40.426681 305.47897,40.220841 C 275.14906,39.931738 168.81642,40.028182 65.840457,40.220841 z" transform="matrix(0.9551184,0,0,0.9693433,12.274847,2.7155996)">
    <title>document-shadow-behind</title>
  </path>
  <rect style="fill: none; stroke: rgb(0, 0, 0); stroke-width: 1.0609; display: none;" id="rect2482" y="25.1" x="0.5" height="512" width="512"/>
  <path style="opacity:1;fill:#646464;fill-opacity:0.39215686;stroke:#7b0000;stroke-width:0;stroke-miterlimit:4;stroke-dasharray:none;stroke-opacity:1;filter:url(#filter3567)" id="path3503" d="M 505.48196,424.97062 C 505.48196,484.27809 457.88996,532.35629 399.18226,532.35629 C 340.47457,532.35629 292.88257,484.27809 292.88257,424.97062 C 292.88257,365.66316 340.47457,317.58496 399.18226,317.58496 C 457.88996,317.58496 505.48196,365.66316 505.48196,424.97062 z" transform="matrix(0.9609994,0,0,0.9613938,11.422588,12.260738)">
    <title>emacs-shadow-behind-document</title>
  </path>
  <path d="m 491.66937,257.75916 c 0,131.79436 -105.76,238.63481 -236.22155,238.63481 -130.46155,0 -236.221539,-106.84045 -236.221539,-238.63481 0,-131.79437 105.759989,-238.634808 236.221539,-238.634808 130.46155,0 236.22155,106.840438 236.22155,238.634808 z" id="path4351" style="opacity:0.40500004;fill:#211f46;fill-opacity:0.99607843;stroke:#0a0b1b;stroke-width:8.53333378;stroke-miterlimit:4;stroke-dasharray:none;stroke-opacity:1;filter:url(#filter4350)" transform="matrix(0.43821233,0,0,0.43821233,267.13588,294.81152)">
    <title>emacs-shadow</title>
  </path>
  <path style="fill:url(#linearGradient3429);fill-opacity:1;fill-rule:evenodd;stroke:#000000;stroke-width:0.40000001;stroke-linecap:butt;stroke-linejoin:miter;stroke-miterlimit:4;stroke-dasharray:none;stroke-opacity:1" id="path3419" d="M 80.5,39.1 L 80.5,506 L 436.5,506 C 436.5,506 436.94688,264.06231 436.86644,192.2301 C 436.8457,173.71308 433.76569,159.25553 422.20901,147.67024 C 365.34657,90.667114 353.06631,78.680195 332.88312,59.270019 C 327.21916,53.82299 317.43656,40.028603 299.86845,39.1 C 272.10272,39.049948 174.76564,38.916782 80.5,39.1 z">
    <title>document</title>
  </path>
  <path style="opacity:1;fill:url(#linearGradient4274);fill-opacity:1;stroke:url(#linearGradient4298);stroke-width:5.92283726;stroke-miterlimit:4;stroke-dasharray:none;stroke-opacity:1" id="path4864-6" d="m 482.59147,407.7648 c 0,57.75387 -46.34532,104.5727 -103.51517,104.5727 -57.16986,0 -103.51523,-46.81883 -103.51523,-104.5727 0,-57.75392 46.34537,-104.57271 103.51523,-104.57271 57.16985,0 103.51517,46.81879 103.51517,104.57271 z">
    <title>emacs-background</title>
  </path>
  <path style="fill: rgb(255, 255, 255); fill-opacity: 1; stroke-linejoin: round; stroke-linecap: round;" d="M 382.817 484.679 C 370.246 484.172 330.197 480.901 331.514 479.201 C 332.659 477.724 353.042 479.509 367.912 478.263 C 374.397 477.72 390.656 476.149 390.485 474.663 C 390.273 472.82 369.333 471.041 356.16 467.091 C 333.197 460.205 308.07 447.476 303.875 431.056 C 301.281 420.902 309.24 410.932 324.188 406.894 C 336.213 403.645 353.981 403.524 372.049 406.569 C 374.447 406.973 376.516 407.236 376.649 407.153 C 377.409 406.684 376.586 405.744 373.544 403.61 C 355.162 390.716 341.881 378.925 336.711 370.91 C 331.022 362.091 334.363 356.915 346.938 355.065 C 350.863 354.488 362.182 354.426 368.314 354.949 C 377.643 355.745 389.086 357.324 397.942 359.039 C 400.514 359.536 402.842 359.945 403.114 359.946 C 403.539 359.948 403.573 359.686 403.35 358.063 C 402.663 353.042 399.135 349.407 393.108 347.515 C 389.848 346.49 387.37 346.154 381.594 345.95 C 378.33 345.835 376.118 345.632 376.055 345.439 C 375.994 345.252 377.793 344.815 380.397 344.386 C 382.842 343.982 385.035 343.549 385.268 343.426 C 385.556 343.273 384.851 342.681 383.086 341.596 C 380.764 340.167 380.179 339.601 377.76 336.432 C 375.927 334.033 375.177 332.822 375.456 332.715 C 375.683 332.629 378.44 334.37 381.583 336.585 C 385.501 339.347 387.562 340.613 388.14 340.613 C 390.193 340.613 397.159 343.099 402.209 345.633 C 405.883 347.478 409.816 349.034 410.804 349.034 C 412.006 349.034 412.444 348.515 412.444 347.092 C 412.444 345.539 410.705 343.598 408.039 342.177 C 406.283 341.241 405.717 341.12 401.044 340.68 L 395.96 340.201 L 394.612 339.017 L 393.264 337.833 L 396.773 337.819 C 400.068 337.807 400.281 337.769 400.281 337.182 C 400.281 336.695 400.073 336.559 399.327 336.559 C 398.802 336.559 398.447 336.439 398.537 336.292 C 398.674 336.072 393.301 330.966 389.952 328.134 L 389.026 327.352 L 389.742 325.725 C 390.135 324.83 390.537 324.096 390.633 324.091 C 390.73 324.087 391.032 324.551 391.305 325.123 C 392.126 326.843 394.81 329.837 396.596 331.022 C 397.519 331.635 399.744 332.647 401.539 333.272 C 405.194 334.543 407.024 335.498 410.885 338.154 C 415.348 341.223 418.721 344.224 419.681 345.98 C 422.155 350.506 427.915 356.105 434.942 360.819 C 437.742 362.696 438.641 364.141 438.641 366.762 C 438.641 370.382 441.075 374.742 444.909 378.491 C 446.694 380.237 446.766 380.254 450.056 382.309 C 451.324 383.1 451.876 382.942 452.936 383.536 C 453.733 383.984 453.676 385.238 451.149 386.522 C 448.161 388.04 448.721 390.51 441.08 385.52 C 438.956 384.132 434.679 381.693 434.679 381.693 L 430.306 381.801 C 430.306 381.801 426.955 381.938 424.091 381.275 C 421.374 380.646 416.241 378.222 416.241 378.222 C 412.725 376.271 403.788 373.116 392.608 370.987 C 374.198 367.482 356.28 371.91 366.561 383.395 C 375.263 393.117 375.373 393.053 389.959 405.487 L 407.508 418.424 L 399.295 418.634 C 373.527 419.289 356.034 423.547 343.87 427.854 C 338.05 429.914 329.834 435.244 343.257 444.184 C 349.516 448.353 365.659 454.451 383.925 458.912 C 389.305 460.226 424.663 467.052 422.463 475.506 C 420.729 482.168 405.421 485.589 382.817 484.679 Z" id="path4166" bx:origin="0.49055 0.539195">
    <title>dragon</title>
  </path>
  <rect style="opacity:1;fill:url(#linearGradient3405);fill-opacity:1;stroke:#000030;stroke-width:0;stroke-miterlimit:4;stroke-dasharray:none;stroke-opacity:1" id="rect3395" y="177.48801" x="80.5" height="328.51199" width="264.62119">
    <title>document-shadow-above</title>
  </rect>
  <path style="fill:#464646;fill-opacity:1;fill-rule:evenodd;stroke:#000000;stroke-width:1px;stroke-linecap:butt;stroke-linejoin:miter;stroke-opacity:1;filter:url(#filter3715)" id="path3605" d="M 343.70805,92.437911 L 340.45142,163.9826 L 407.92401,146.89664 L 343.70805,92.437911 z">
    <title>document-shadow-top-right</title>
  </path>
  <path style="fill:url(#linearGradient3597);fill-opacity:1;fill-rule:evenodd;stroke:url(#linearGradient3257);stroke-width:0.40000001;stroke-linecap:butt;stroke-linejoin:miter;stroke-miterlimit:4;stroke-dasharray:none;stroke-opacity:1" id="path3587" d="M 345.72328,141.21214 C 369.54719,142.1578 408.63612,148.57658 423.38894,158.82173 C 429.63156,163.15694 437.02426,166.82736 436.86644,192.2301 C 436.05863,170.15935 433.76569,159.25553 422.20901,147.67024 C 365.34657,90.667114 353.06631,78.680195 332.88312,59.270019 C 316.59252,41.730605 308.6525,39.564301 299.86845,39.1 C 326.8119,41.20075 339.80786,67.674693 345.72328,141.21214 z">
    <title>document-top-right</title>
  </path>
  <title id="title2997">emacs-china</title>
  <title id="bx-title-1">emacs-china</title>
</svg>