<?xml version="1.0" encoding="utf-8"?>
<svg id="svg2478" viewBox="0.5 25.1 512 512" height="512" width="512" version="1.0" xmlns="http://www.w3.org/2000/svg" xmlns:xlink="http://www.w3.org/1999/xlink" xmlns:bx="https://boxy-svg.com">
  <defs id="defs2480">
    <linearGradient id="linearGradient3251">
      <stop offset="0" style="stop-color:#000000;stop-opacity:1" id="stop3253"/>
      <stop offset="1" style="stop-color:#000000;stop-opacity:0" id="stop3255"/>
    </linearGradient>
    <linearGradient id="linearGradient3591">
      <stop offset="0" style="stop-color:#ffffff;stop-opacity:1" id="stop3593"/>
      <stop offset="1" style="stop-color:#969696;stop-opacity:1" id="stop3595"/>
    </linearGradient>
    <linearGradient id="linearGradient3423">
      <stop offset="0" style="stop-color:#e7e7e8;stop-opacity:1" id="stop3425"/>
      <stop offset="1" style="stop-color:#ffffff;stop-opacity:1" id="stop3427"/>
    </linearGradient>
    <linearGradient id="linearGradient3399">
      <stop offset="0" style="stop-color:#000000;stop-opacity:0.23529412" id="stop3401"/>
      <stop offset="1" style="stop-color:#969696;stop-opacity:0" id="stop3403"/>
    </linearGradient>
    <linearGradient gradientTransform="translate(-0.2692978,0.2692938)" gradientUnits="userSpaceOnUse" id="linearGradient3405" y2="357.5979" x2="229.86604" y1="506" x1="80.5" xlink:href="#linearGradient3399"/>
    <linearGradient gradientUnits="userSpaceOnUse" id="linearGradient3429" y2="495.98917" x2="258.51788" y1="86.313828" x1="262.18225" xlink:href="#linearGradient3423"/>
    <filter id="filter3567">
      <feGaussianBlur stdDeviation="4.2737072" id="feGaussianBlur3569"/>
    </filter>
    <linearGradient gradientUnits="userSpaceOnUse" id="linearGradient3597" y2="95.825417" x2="389.52469" y1="115.66505" x1="368.36868" xlink:href="#linearGradient3591"/>
    <filter id="filter3715" x="-0.384" width="1.768" y="-0.384" height="1.768">
      <feGaussianBlur stdDeviation="14.421378" id="feGaussianBlur3717"/>
    </filter>
    <filter id="filter3731">
      <feGaussianBlur stdDeviation="4.397419" id="feGaussianBlur3733"/>
    </filter>
    <linearGradient gradientUnits="userSpaceOnUse" id="linearGradient3257" y2="83.418686" x2="394.19592" y1="139.48338" x1="348.03799" xlink:href="#linearGradient3251"/>
    <filter height="1.088351" y="-0.044175494" width="1.0892535" x="-0.044626798" id="filter4350" style="color-interpolation-filters:sRGB">
      <feGaussianBlur id="feGaussianBlur4352" stdDeviation="8.7848425"/>
    </filter>
    <linearGradient gradientTransform="matrix(0.38803836,0,0,0.36775507,375.02857,404.82819)" spreadMethod="pad" gradientUnits="userSpaceOnUse" y2="300.73987" x2="236.61363" y1="-161.8512" x1="-122.20192" id="linearGradient4274" xlink:href="#linearGradient4284"/>
    <linearGradient id="linearGradient4284">
      <stop offset="0" style="stop-color:#8381c5;stop-opacity:1" id="stop4286"/>
      <stop id="stop4290" style="stop-color:#7e55b3;stop-opacity:0.99607843" offset="0.5664"/>
      <stop offset="1" style="stop-color:#a52ecb;stop-opacity:0.99215686" id="stop4288"/>
    </linearGradient>
    <linearGradient gradientTransform="matrix(0.43821233,0,0,0.43821233,267.13587,294.81153)" gradientUnits="userSpaceOnUse" y2="66.018341" x2="173.94518" y1="396.6066" x1="447.80933" id="linearGradient4298" xlink:href="#linearGradient4292"/>
    <linearGradient id="linearGradient4292">
      <stop id="stop4294" offset="0" style="stop-color:#411f5d;stop-opacity:1"/>
      <stop id="stop4296" offset="1" style="stop-color:#5b2a85;stop-opacity:1"/>
    </linearGradient>
    <filter id="filter4354" style="color-interpolation-filters:sRGB">
      <feGaussianBlur id="feGaussianBlur4356" stdDeviation="8.7848425"/>
    </filter>
    <filter id="filter4358" style="color-interpolation-filters:sRGB">
      <feGaussianBlur id="feGaussianBlur4360" stdDeviation="8.7848425"/>
    </filter>
  </defs>
  <path style="fill:#0a0a0a;fill-opacity:0.39215686;fill-rule:evenodd;stroke:#000000;stroke-width:0.42872402;stroke-linecap:butt;stroke-linejoin:miter;stroke-miterlimit:4;stroke-dasharray:none;stroke-opacity:1;filter:url(#filter3731)" id="path3431" transform="matrix(0.9551184,0,0,0.9693433,12.274847,2.7155996)" d="M 65.840457,40.220841 L 65.840457,531.21586 L 454.73556,531.21586 C 454.73556,531.21586 454.82343,271.39779 454.73556,195.85859 C 454.7129,176.38596 452.52523,165.22182 440.52509,152.46728 C 385.21346,93.678448 362.19141,71.631941 340.14323,51.220087 C 333.95591,45.491962 327.07219,40.426681 305.47897,40.220841 C 275.14906,39.931738 168.81642,40.028182 65.840457,40.220841 z"/>
  <rect style="fill:none;stroke:#000000;stroke-width:1.06089997;display:none" id="rect2482" y="25.1" x="0.5" height="512" width="512"/>
  <path style="opacity:1;fill:#646464;fill-opacity:0.39215686;stroke:#7b0000;stroke-width:0;stroke-miterlimit:4;stroke-dasharray:none;stroke-opacity:1;filter:url(#filter3567)" id="path3503" transform="matrix(0.9609994,0,0,0.9613938,11.422588,12.260738)" d="M 505.48196,424.97062 C 505.48196,484.27809 457.88996,532.35629 399.18226,532.35629 C 340.47457,532.35629 292.88257,484.27809 292.88257,424.97062 C 292.88257,365.66316 340.47457,317.58496 399.18226,317.58496 C 457.88996,317.58496 505.48196,365.66316 505.48196,424.97062 z"/>
  <path transform="matrix(0.43821233,0,0,0.43821233,267.13588,294.81152)" d="m 491.66937,257.75916 c 0,131.79436 -105.76,238.63481 -236.22155,238.63481 -130.46155,0 -236.221539,-106.84045 -236.221539,-238.63481 0,-131.79437 105.759989,-238.634808 236.221539,-238.634808 130.46155,0 236.22155,106.840438 236.22155,238.634808 z" id="path4351" style="opacity:0.40500004;fill:#211f46;fill-opacity:0.99607843;stroke:#0a0b1b;stroke-width:8.53333378;stroke-miterlimit:4;stroke-dasharray:none;stroke-opacity:1;filter:url(#filter4350)"/>
  <path style="fill:url(#linearGradient3429);fill-opacity:1;fill-rule:evenodd;stroke:#000000;stroke-width:0.40000001;stroke-linecap:butt;stroke-linejoin:miter;stroke-miterlimit:4;stroke-dasharray:none;stroke-opacity:1" id="path3419" d="M 80.5,39.1 L 80.5,506 L 436.5,506 C 436.5,506 436.94688,264.06231 436.86644,192.2301 C 436.8457,173.71308 433.76569,159.25553 422.20901,147.67024 C 365.34657,90.667114 353.06631,78.680195 332.88312,59.270019 C 327.21916,53.82299 317.43656,40.028603 299.86845,39.1 C 272.10272,39.049948 174.76564,38.916782 80.5,39.1 z"/>
  <path style="opacity:1;fill:url(#linearGradient4274);fill-opacity:1;stroke:url(#linearGradient4298);stroke-width:5.92283726;stroke-miterlimit:4;stroke-dasharray:none;stroke-opacity:1" id="path4864-6" d="m 482.59147,407.7648 c 0,57.75387 -46.34532,104.5727 -103.51517,104.5727 -57.16986,0 -103.51523,-46.81883 -103.51523,-104.5727 0,-57.75392 46.34537,-104.57271 103.51523,-104.57271 57.16985,0 103.51517,46.81879 103.51517,104.57271 z"/>
  <rect style="opacity:1;fill:url(#linearGradient3405);fill-opacity:1;stroke:#000030;stroke-width:0;stroke-miterlimit:4;stroke-dasharray:none;stroke-opacity:1" id="rect3395" y="177.48801" x="80.5" height="328.51199" width="264.62119"/>
  <g transform="matrix(0.43821233,0,0,0.43821233,267.13588,294.81152)" style="opacity:0.40500004;stroke:none;filter:url(#filter4354)" id="g4796">
    <g style="stroke:none" id="g4800"/>
  </g>
  <g transform="matrix(0.43821233,0,0,0.43821233,267.13588,294.81152)" style="opacity:0.40500004;filter:url(#filter4358)" id="g4774"/>
  <path style="fill:#464646;fill-opacity:1;fill-rule:evenodd;stroke:#000000;stroke-width:1px;stroke-linecap:butt;stroke-linejoin:miter;stroke-opacity:1;filter:url(#filter3715)" id="path3605" d="M 343.70805,92.437911 L 340.45142,163.9826 L 407.92401,146.89664 L 343.70805,92.437911 z"/>
  <path style="fill:url(#linearGradient3597);fill-opacity:1;fill-rule:evenodd;stroke:url(#linearGradient3257);stroke-width:0.40000001;stroke-linecap:butt;stroke-linejoin:miter;stroke-miterlimit:4;stroke-dasharray:none;stroke-opacity:1" id="path3587" d="M 345.72328,141.21214 C 369.54719,142.1578 408.63612,148.57658 423.38894,158.82173 C 429.63156,163.15694 437.02426,166.82736 436.86644,192.2301 C 436.05863,170.15935 433.76569,159.25553 422.20901,147.67024 C 365.34657,90.667114 353.06631,78.680195 332.88312,59.270019 C 316.59252,41.730605 308.6525,39.564301 299.86845,39.1 C 326.8119,41.20075 339.80786,67.674693 345.72328,141.21214 z"/>
  <path style="fill: rgb(255, 255, 255); fill-opacity: 1; stroke-linejoin: round; stroke-linecap: round;" d="M 383.348 483.476 C 371.169 482.985 332.37 479.816 333.646 478.169 C 334.754 476.738 354.502 478.467 368.908 477.261 C 375.19 476.735 390.942 475.212 390.776 473.772 C 390.57 471.987 370.285 470.264 357.522 466.437 C 335.277 459.766 310.934 447.434 306.87 431.527 C 304.356 421.689 312.066 412.03 326.548 408.119 C 338.198 404.971 355.411 404.855 372.916 407.804 C 375.238 408.195 377.243 408.45 377.372 408.37 C 378.109 407.916 377.311 407.004 374.364 404.937 C 356.555 392.446 343.689 381.023 338.68 373.258 C 333.169 364.714 336.406 359.7 348.588 357.908 C 352.391 357.348 363.357 357.288 369.297 357.795 C 378.335 358.566 389.422 360.095 398.001 361.757 C 400.492 362.239 402.748 362.635 403.011 362.636 C 403.423 362.638 403.456 362.384 403.24 360.812 C 402.575 355.948 399.157 352.426 393.317 350.593 C 390.159 349.6 387.758 349.274 382.162 349.076 C 379 348.966 376.858 348.768 376.797 348.582 C 376.737 348.4 378.48 347.977 381.003 347.561 C 383.372 347.171 385.496 346.752 385.723 346.632 C 386.001 346.484 385.319 345.911 383.608 344.858 C 381.358 343.474 380.793 342.926 378.448 339.857 C 376.673 337.532 375.946 336.358 376.216 336.255 C 376.436 336.172 379.107 337.858 382.152 340.005 C 385.948 342.679 387.944 343.907 388.504 343.907 C 390.494 343.907 397.242 346.315 402.133 348.77 C 405.694 350.557 409.504 352.064 410.461 352.064 C 411.626 352.064 412.05 351.562 412.05 350.184 C 412.05 348.679 410.365 346.799 407.782 345.421 C 406.081 344.514 405.533 344.398 401.006 343.971 L 396.081 343.507 L 394.774 342.36 L 393.468 341.213 L 396.868 341.199 C 400.06 341.187 400.266 341.151 400.266 340.582 C 400.266 340.11 400.065 339.979 399.342 339.979 C 398.834 339.979 398.49 339.862 398.578 339.72 C 398.709 339.506 393.505 334.561 390.26 331.817 L 389.363 331.06 L 390.056 329.483 C 390.438 328.617 390.826 327.905 390.92 327.9 C 391.013 327.896 391.307 328.346 391.57 328.9 C 392.365 330.566 394.967 333.467 396.697 334.615 C 397.591 335.209 399.747 336.189 401.485 336.794 C 405.026 338.025 406.799 338.951 410.539 341.523 C 414.863 344.497 418.131 347.405 419.061 349.106 C 421.457 353.49 427.038 358.915 433.846 363.482 C 436.558 365.3 437.43 366.7 437.43 369.24 C 437.43 372.746 439.723 377.037 443.501 380.602 C 445.811 382.781 446.638 383.357 451.63 386.846 C 454.598 388.921 458.002 389.614 455.571 393.489 C 453.24 397.203 451.674 396.006 446.252 390.294 C 444.561 388.512 436.822 384.336 436.822 384.336 L 431.84 384.018 C 431.84 384.018 426.108 383.941 423.334 383.299 C 420.701 382.689 415.729 380.341 415.729 380.341 C 412.322 378.451 403.664 375.395 392.834 373.332 C 374.997 369.936 357.638 374.227 367.599 385.353 C 376.03 394.772 376.135 394.71 390.266 406.756 L 407.268 419.288 L 399.311 419.492 C 374.348 420.127 357.4 424.252 345.616 428.425 C 339.978 430.42 332.017 435.584 345.022 444.245 C 351.085 448.283 366.724 454.191 384.421 458.513 C 389.633 459.786 423.887 466.399 421.757 474.59 C 420.077 481.043 405.246 484.358 383.348 483.476 Z" id="path4166" bx:origin="-1.059787 1.870813">
    <title>dragon</title>
  </path>
  <title id="title2997">emacs-china</title>
  <title id="bx-title-1">emacs-china</title>
</svg>