<?xml version="1.0" encoding="utf-8"?>
<svg id="svg2478" viewBox="0.5 25.1 512 512" height="512" width="512" version="1.0" xmlns="http://www.w3.org/2000/svg" xmlns:xlink="http://www.w3.org/1999/xlink" xmlns:bx="https://boxy-svg.com">
  <defs id="defs2480">
    <linearGradient id="linearGradient3251">
      <stop offset="0" style="stop-color:#000000;stop-opacity:1" id="stop3253"/>
      <stop offset="1" style="stop-color:#000000;stop-opacity:0" id="stop3255"/>
    </linearGradient>
    <linearGradient id="linearGradient3591">
      <stop offset="0" style="stop-color:#ffffff;stop-opacity:1" id="stop3593"/>
      <stop offset="1" style="stop-color:#969696;stop-opacity:1" id="stop3595"/>
    </linearGradient>
    <linearGradient id="linearGradient3423">
      <stop offset="0" style="stop-color:#e7e7e8;stop-opacity:1" id="stop3425"/>
      <stop offset="1" style="stop-color:#ffffff;stop-opacity:1" id="stop3427"/>
    </linearGradient>
    <linearGradient id="linearGradient3399">
      <stop offset="0" style="stop-color:#000000;stop-opacity:0.23529412" id="stop3401"/>
      <stop offset="1" style="stop-color:#969696;stop-opacity:0" id="stop3403"/>
    </linearGradient>
    <linearGradient gradientTransform="translate(-0.2692978,0.2692938)" gradientUnits="userSpaceOnUse" id="linearGradient3405" y2="357.5979" x2="229.86604" y1="506" x1="80.5" xlink:href="#linearGradient3399"/>
    <linearGradient gradientUnits="userSpaceOnUse" id="linearGradient3429" y2="495.98917" x2="258.51788" y1="86.313828" x1="262.18225" xlink:href="#linearGradient3423"/>
    <filter id="filter3567">
      <feGaussianBlur stdDeviation="4.2737072" id="feGaussianBlur3569"/>
    </filter>
    <linearGradient gradientUnits="userSpaceOnUse" id="linearGradient3597" y2="95.825417" x2="389.52469" y1="115.66505" x1="368.36868" xlink:href="#linearGradient3591"/>
    <filter id="filter3715" x="-0.384" width="1.768" y="-0.384" height="1.768">
      <feGaussianBlur stdDeviation="14.421378" id="feGaussianBlur3717"/>
    </filter>
    <filter id="filter3731">
      <feGaussianBlur stdDeviation="4.397419" id="feGaussianBlur3733"/>
    </filter>
    <linearGradient gradientUnits="userSpaceOnUse" id="linearGradient3257" y2="83.418686" x2="394.19592" y1="139.48338" x1="348.03799" xlink:href="#linearGradient3251"/>
    <filter height="1.088351" y="-0.044175494" width="1.0892535" x="-0.044626798" id="filter4350" style="color-interpolation-filters:sRGB">
      <feGaussianBlur id="feGaussianBlur4352" stdDeviation="8.7848425"/>
    </filter>
    <linearGradient gradientTransform="matrix(0.38803836,0,0,0.36775507,375.02857,404.82819)" spreadMethod="pad" gradientUnits="userSpaceOnUse" y2="300.73987" x2="236.61363" y1="-161.8512" x1="-122.20192" id="linearGradient4274" xlink:href="#linearGradient4284"/>
    <linearGradient id="linearGradient4284">
      <stop offset="0" style="stop-color:#8381c5;stop-opacity:1" id="stop4286"/>
      <stop id="stop4290" style="stop-color:#7e55b3;stop-opacity:0.99607843" offset="0.5664"/>
      <stop offset="1" style="stop-color:#a52ecb;stop-opacity:0.99215686" id="stop4288"/>
    </linearGradient>
    <linearGradient gradientTransform="matrix(0.43821233,0,0,0.43821233,267.13587,294.81153)" gradientUnits="userSpaceOnUse" y2="66.018341" x2="173.94518" y1="396.6066" x1="447.80933" id="linearGradient4298" xlink:href="#linearGradient4292"/>
    <linearGradient id="linearGradient4292">
      <stop id="stop4294" offset="0" style="stop-color:#411f5d;stop-opacity:1"/>
      <stop id="stop4296" offset="1" style="stop-color:#5b2a85;stop-opacity:1"/>
    </linearGradient>
    <filter id="filter4354" style="color-interpolation-filters:sRGB">
      <feGaussianBlur id="feGaussianBlur4356" stdDeviation="8.7848425"/>
    </filter>
    <filter id="filter4358" style="color-interpolation-filters:sRGB">
      <feGaussianBlur id="feGaussianBlur4360" stdDeviation="8.7848425"/>
    </filter>
  </defs>
  <path style="fill:#0a0a0a;fill-opacity:0.39215686;fill-rule:evenodd;stroke:#000000;stroke-width:0.42872402;stroke-linecap:butt;stroke-linejoin:miter;stroke-miterlimit:4;stroke-dasharray:none;stroke-opacity:1;filter:url(#filter3731)" id="path3431" transform="matrix(0.9551184,0,0,0.9693433,12.274847,2.7155996)" d="M 65.840457,40.220841 L 65.840457,531.21586 L 454.73556,531.21586 C 454.73556,531.21586 454.82343,271.39779 454.73556,195.85859 C 454.7129,176.38596 452.52523,165.22182 440.52509,152.46728 C 385.21346,93.678448 362.19141,71.631941 340.14323,51.220087 C 333.95591,45.491962 327.07219,40.426681 305.47897,40.220841 C 275.14906,39.931738 168.81642,40.028182 65.840457,40.220841 z"/>
  <rect style="fill:none;stroke:#000000;stroke-width:1.06089997;display:none" id="rect2482" y="25.1" x="0.5" height="512" width="512"/>
  <path style="opacity:1;fill:#646464;fill-opacity:0.39215686;stroke:#7b0000;stroke-width:0;stroke-miterlimit:4;stroke-dasharray:none;stroke-opacity:1;filter:url(#filter3567)" id="path3503" transform="matrix(0.9609994,0,0,0.9613938,11.422588,12.260738)" d="M 505.48196,424.97062 C 505.48196,484.27809 457.88996,532.35629 399.18226,532.35629 C 340.47457,532.35629 292.88257,484.27809 292.88257,424.97062 C 292.88257,365.66316 340.47457,317.58496 399.18226,317.58496 C 457.88996,317.58496 505.48196,365.66316 505.48196,424.97062 z"/>
  <path transform="matrix(0.43821233,0,0,0.43821233,267.13588,294.81152)" d="m 491.66937,257.75916 c 0,131.79436 -105.76,238.63481 -236.22155,238.63481 -130.46155,0 -236.221539,-106.84045 -236.221539,-238.63481 0,-131.79437 105.759989,-238.634808 236.221539,-238.634808 130.46155,0 236.22155,106.840438 236.22155,238.634808 z" id="path4351" style="opacity:0.40500004;fill:#211f46;fill-opacity:0.99607843;stroke:#0a0b1b;stroke-width:8.53333378;stroke-miterlimit:4;stroke-dasharray:none;stroke-opacity:1;filter:url(#filter4350)"/>
  <path style="fill:url(#linearGradient3429);fill-opacity:1;fill-rule:evenodd;stroke:#000000;stroke-width:0.40000001;stroke-linecap:butt;stroke-linejoin:miter;stroke-miterlimit:4;stroke-dasharray:none;stroke-opacity:1" id="path3419" d="M 80.5,39.1 L 80.5,506 L 436.5,506 C 436.5,506 436.94688,264.06231 436.86644,192.2301 C 436.8457,173.71308 433.76569,159.25553 422.20901,147.67024 C 365.34657,90.667114 353.06631,78.680195 332.88312,59.270019 C 327.21916,53.82299 317.43656,40.028603 299.86845,39.1 C 272.10272,39.049948 174.76564,38.916782 80.5,39.1 z"/>
  <path style="opacity:1;fill:url(#linearGradient4274);fill-opacity:1;stroke:url(#linearGradient4298);stroke-width:5.92283726;stroke-miterlimit:4;stroke-dasharray:none;stroke-opacity:1" id="path4864-6" d="m 482.59147,407.7648 c 0,57.75387 -46.34532,104.5727 -103.51517,104.5727 -57.16986,0 -103.51523,-46.81883 -103.51523,-104.5727 0,-57.75392 46.34537,-104.57271 103.51523,-104.57271 57.16985,0 103.51517,46.81879 103.51517,104.57271 z"/>
  <rect style="opacity:1;fill:url(#linearGradient3405);fill-opacity:1;stroke:#000030;stroke-width:0;stroke-miterlimit:4;stroke-dasharray:none;stroke-opacity:1" id="rect3395" y="177.48801" x="80.5" height="328.51199" width="264.62119"/>
  <g transform="matrix(0.43821233,0,0,0.43821233,267.13588,294.81152)" style="opacity:0.40500004;stroke:none;filter:url(#filter4354)" id="g4796">
    <g style="stroke:none" id="g4800"/>
  </g>
  <g transform="matrix(0.43821233,0,0,0.43821233,267.13588,294.81152)" style="opacity:0.40500004;filter:url(#filter4358)" id="g4774"/>
  <path style="fill:#464646;fill-opacity:1;fill-rule:evenodd;stroke:#000000;stroke-width:1px;stroke-linecap:butt;stroke-linejoin:miter;stroke-opacity:1;filter:url(#filter3715)" id="path3605" d="M 343.70805,92.437911 L 340.45142,163.9826 L 407.92401,146.89664 L 343.70805,92.437911 z"/>
  <path style="fill:url(#linearGradient3597);fill-opacity:1;fill-rule:evenodd;stroke:url(#linearGradient3257);stroke-width:0.40000001;stroke-linecap:butt;stroke-linejoin:miter;stroke-miterlimit:4;stroke-dasharray:none;stroke-opacity:1" id="path3587" d="M 345.72328,141.21214 C 369.54719,142.1578 408.63612,148.57658 423.38894,158.82173 C 429.63156,163.15694 437.02426,166.82736 436.86644,192.2301 C 436.05863,170.15935 433.76569,159.25553 422.20901,147.67024 C 365.34657,90.667114 353.06631,78.680195 332.88312,59.270019 C 316.59252,41.730605 308.6525,39.564301 299.86845,39.1 C 326.8119,41.20075 339.80786,67.674693 345.72328,141.21214 z"/>
  <g transform="matrix(0.454545, 0, 0, 0.454545, 75.673584, 358.155914)">
    <title>dragon</title>
    <path style="fill:#ffffff;fill-opacity:1" d="M 676.376 274.726 C 648.963 273.621 609.294 268.843 572.997 262.276 L 564.496 260.739 L 585.238 260.281 C 604.425 259.859 623.912 258.794 644.07 257.062 C 658.208 255.847 694.847 252.315 700.502 251.623 C 703.484 251.259 706.185 250.959 706.499 250.959 C 706.816 250.959 706.978 250.283 706.858 249.455 C 706.647 247.988 705.709 246.994 666.279 241.97 L 649.406 240.266 L 639.018 238.464 L 628.077 236.641 L 621.33 235.102 L 614.824 233.319 C 552.114 208.432 511.949 180.261 504.221 155.743 C 497.353 133.945 515.92 111.858 548.519 103.052 C 574.744 95.966 613.492 95.703 652.894 102.343 C 658.123 103.223 662.635 103.798 662.926 103.617 C 664.583 102.594 662.788 100.543 656.154 95.89 C 616.068 67.771 587.104 42.056 575.829 24.578 C 563.423 5.346 570.709 -5.942 598.132 -9.976 C 606.692 -11.236 631.376 -11.37 644.748 -10.229 C 665.094 -8.493 690.049 -5.051 709.362 -1.31 C 714.971 -0.226 720.048 0.665 720.641 0.668 C 721.568 0.672 721.641 0.1 721.155 -3.439 C 719.658 -14.389 711.964 -22.316 698.819 -26.443 C 691.71 -28.677 686.306 -29.411 673.71 -29.855 C 666.591 -30.106 661.769 -30.549 661.631 -30.969 C 661.497 -31.378 665.42 -32.33 671.099 -33.266 C 676.432 -34.146 681.214 -35.09 681.723 -35.359 C 682.35 -35.693 680.813 -36.983 676.963 -39.351 C 671.899 -42.467 670.625 -43.701 665.348 -50.611 C 661.352 -55.844 659.716 -58.485 660.324 -58.717 C 660.819 -58.906 666.831 -55.109 673.685 -50.278 C 682.23 -44.255 686.724 -41.493 687.986 -41.493 C 692.463 -41.493 707.654 -36.073 718.666 -30.547 C 726.679 -26.523 735.257 -23.13 737.411 -23.13 C 740.032 -23.13 740.987 -24.261 740.987 -27.364 C 740.987 -30.751 737.195 -34.984 731.38 -38.084 C 727.552 -40.125 726.317 -40.388 716.127 -41.348 L 705.04 -42.392 L 702.1 -44.975 L 699.159 -47.556 L 706.812 -47.587 C 713.999 -47.613 714.462 -47.697 714.462 -48.976 C 714.462 -50.039 714.008 -50.334 712.382 -50.334 C 711.237 -50.334 710.463 -50.597 710.66 -50.916 C 710.958 -51.397 699.241 -62.531 691.937 -68.707 L 689.917 -70.413 L 691.478 -73.961 C 692.336 -75.913 693.212 -77.515 693.423 -77.525 C 693.634 -77.534 694.293 -76.521 694.887 -75.275 C 696.677 -71.523 702.532 -64.995 706.427 -62.409 C 708.44 -61.072 713.292 -58.866 717.206 -57.503 C 725.177 -54.732 729.168 -52.648 737.587 -46.857 C 747.32 -40.163 754.676 -33.618 756.769 -29.789 C 762.165 -19.92 774.727 -7.709 790.051 2.571 C 796.157 6.665 798.118 9.816 798.118 15.532 C 798.118 23.426 803.28 33.086 811.786 41.111 C 816.986 46.015 825.668 52.683 830.084 55.166 C 831.581 56.006 832.803 57.174 832.801 57.759 C 832.789 60.999 831.161 63.904 827.113 67.919 L 822.753 72.236 L 817.303 70.631 L 811.849 69.026 L 806.854 62.707 L 801.858 56.386 L 793.697 52.592 L 785.534 48.798 L 773.633 48.129 L 761.731 47.46 L 747.785 39.726 C 740.117 35.472 732.923 31.831 731.803 31.631 C 728.185 30.991 705.744 29.226 688.277 28.21 C 646.231 25.763 630.806 28.074 630.806 36.819 C 630.806 37.612 632.782 40.278 635.398 43.009 C 640.839 48.697 670.336 75.366 705.169 106.095 L 730.223 128.196 L 712.312 128.653 C 656.117 130.083 616.237 136.716 591.442 148.76 C 585.548 151.623 582.631 153.535 579.208 156.778 L 574.711 161.039 L 575.658 163.655 C 577.054 167.515 581.679 174.965 585.121 178.903 C 595.919 191.246 617.614 202.637 643.39 209.495 C 654.092 212.342 662.541 213.993 678.406 216.335 C 711.87 221.277 734.511 228.067 748.951 237.493 C 754.32 240.998 760.165 246.59 761.846 249.83 C 762.775 251.623 762.719 252.029 761.079 255.382 C 753.785 270.291 725.672 276.711 676.376 274.726 Z" id="path4166">
      <title>dragon</title>
    </path>
    <path style="fill: rgb(255, 255, 255);" transform="matrix(-0.372789, 0, 0, 0.528845, 758.68042, -68.695168)" d="M 473.613 416.846 A 23.42 23.42 0 1 1 473.613 461 A 27.366 27.366 0 0 0 473.613 416.846 Z" bx:shape="crescent 481.431 438.923 23.42 219 0.572 1@84f2780d">
      <title>fixup corner</title>
    </path>
  </g>
</svg>